# xmcd
# 
# Track frame offsets:
#     150
#     35015
#     55420
#     67193
#     73533
#     101165
#     123228
#     148860
#     160173
# 
# Disc length: 2687
# 
# Revision: 0
# Processed by: cddbd v1.5.2PL0 Copyright (c) Steve Scherf et al.
# Submitted via: fre:ac v1.0.31
# 
DISCID=8a0a7d09
DTITLE=Zephyr - Zephyr
DYEAR=0
DGENRE=Rock/Pop
TTITLE0=Sail On
TTITLE1=Sun's A-Risin'
TTITLE2=Raindrops
TTITLE3=Boom-Ba-Boom
TTITLE4=Somebody Listen
TTITLE5=Cross The River
TTITLE6=St. James Infirmary
TTITLE7=Huna Buna
TTITLE8=Hard Chargin' Woman
EXTD=Track 2 name corrected.
EXTT0=
EXTT1=
EXTT2=
EXTT3=
EXTT4=
EXTT5=
EXTT6=
EXTT7=
EXTT8=
PLAYORDER=
